<svg width="24" height="24" viewBox="0 0 24 24" fill="none" xmlns="http://www.w3.org/2000/svg">
<path d="M12 23.0186C17.8975 23.0186 22.7744 18.1416 22.7744 12.2441C22.7744 6.33594 17.8975 1.46973 11.9893 1.46973C6.0918 1.46973 1.22559 6.33594 1.22559 12.2441C1.22559 18.1416 6.10254 23.0186 12 23.0186ZM5.39355 5.27246C6.58594 4.14453 8.06836 3.30664 9.70117 2.89844C8.86328 3.66113 8.14355 4.83203 7.61719 6.31445C6.74707 6.05664 5.99512 5.70215 5.39355 5.27246ZM14.2988 2.89844C15.9424 3.31738 17.4141 4.14453 18.6064 5.27246C17.9941 5.70215 17.2529 6.05664 16.3828 6.31445C15.8564 4.83203 15.1367 3.66113 14.2988 2.89844ZM8.72363 6.59375C9.38965 4.69238 10.3672 3.37109 11.4414 3.0166V6.88379C10.4531 6.85156 9.55078 6.75488 8.72363 6.59375ZM12.5586 3.0166C13.6328 3.37109 14.6104 4.69238 15.2764 6.59375C14.4492 6.75488 13.5469 6.85156 12.5586 6.88379V3.0166ZM2.39648 11.6855C2.51465 9.55859 3.3418 7.61426 4.6416 6.06738C5.3291 6.59375 6.23145 7.02344 7.29492 7.3457C6.95117 8.62402 6.73633 10.085 6.69336 11.6855H2.39648ZM17.3066 11.6855C17.2637 10.085 17.0488 8.62402 16.7051 7.3457C17.7686 7.02344 18.6709 6.59375 19.3584 6.07812C20.6582 7.61426 21.4854 9.55859 21.6035 11.6855H17.3066ZM12.5586 11.6855V7.99023C13.6328 7.95801 14.6641 7.83984 15.5986 7.63574C15.9209 8.84961 16.1143 10.2246 16.1572 11.6855H12.5586ZM7.84277 11.6855C7.88574 10.2246 8.08984 8.84961 8.40137 7.63574C9.34668 7.83984 10.3672 7.95801 11.4414 7.99023V11.6855H7.84277ZM2.39648 12.8027H6.69336C6.73633 14.4141 6.95117 15.8965 7.29492 17.1855C6.25293 17.5078 5.35059 17.9375 4.67383 18.4424C3.35254 16.8955 2.51465 14.9404 2.39648 12.8027ZM7.84277 12.8027H11.4414V16.5518C10.3779 16.5732 9.35742 16.7021 8.42285 16.8955C8.08984 15.6709 7.875 14.2637 7.84277 12.8027ZM12.5586 16.5518V12.8027H16.168C16.125 14.2637 15.9102 15.6709 15.5771 16.8955C14.6426 16.7021 13.6328 16.5732 12.5586 16.5518ZM16.7051 17.1855C17.0488 15.8965 17.2637 14.4141 17.3066 12.8027H21.6035C21.4854 14.9404 20.6475 16.8955 19.3262 18.4424C18.6494 17.9375 17.7471 17.5078 16.7051 17.1855ZM12.5586 17.6582C13.5361 17.6904 14.4385 17.7871 15.2549 17.9482C14.5889 19.8066 13.6221 21.1387 12.5586 21.4932V17.6582ZM8.74512 17.9482C9.57227 17.7871 10.4639 17.6904 11.4414 17.6582V21.4932C10.3779 21.1387 9.41113 19.8066 8.74512 17.9482ZM16.3828 18.2275C17.2314 18.4854 17.9727 18.8291 18.5742 19.2373C17.3926 20.3438 15.9424 21.1709 14.3418 21.5791C15.1582 20.8164 15.8564 19.667 16.3828 18.2275ZM5.42578 19.2373C6.02734 18.8291 6.76855 18.4854 7.62793 18.2275C8.14355 19.667 8.8418 20.8164 9.6582 21.5791C8.05762 21.1709 6.60742 20.3438 5.42578 19.2373Z" fill="black"/>
</svg>
