<?xml version="1.0" encoding="UTF-8" standalone="no"?>

<svg
   version="1.1"
   id="svg2"
   xml:space="preserve"
   width="250"
   height="250"
   viewBox="0 0 1306.6667 1288.48"
   sodipodi:docname="Logo_918_only.eps"
   xmlns:inkscape="http://www.inkscape.org/namespaces/inkscape"
   xmlns:sodipodi="http://sodipodi.sourceforge.net/DTD/sodipodi-0.dtd"
   xmlns="http://www.w3.org/2000/svg"
   xmlns:svg="http://www.w3.org/2000/svg"><defs
     id="defs6" /><sodipodi:namedview
     id="namedview4"
     pagecolor="#ffffff"
     bordercolor="#ffffff"
     borderopacity="1.0"
     inkscape:pageshadow="2"
     inkscape:pageopacity="0.0"
     inkscape:pagecheckerboard="0" /><g
     id="g8"
     inkscape:groupmode="layer"
     inkscape:label="ink_ext_XXXXXX"
     transform="matrix(1.3333333,0,0,-1.3333333,0,1288.48)"><g
       id="g10"
       transform="scale(0.1)"><path
         d="m 8085.11,7512.46 h -89.26 c 0,2338.94 -2335.75,2450.49 -2846.63,277.58 -0.06,-0.2 -1446.95,-6078.92 -1446.95,-6078.92 H 3346.19 L 4801.87,7824.67 C 5430.11,10422.9 8086.83,10222 8085.11,7512.46"
         style="fill:#ffffff;fill-opacity:1;fill-rule:nonzero;stroke:none"
         id="path12" /><path
         d="M 1699.88,8070.07 C 693.328,8070.07 0,7180.28 0,6094.01 0,5044.8 702.563,4212.48 1690.61,4212.48 c 689.57,0 1204.91,565.4 1204.91,823.06 h -87.12 c 0,-140.88 -450.44,-734.09 -1117.79,-734.09 -899.071,0 -1334.669,813.81 -1334.669,1783.3 0,1025.11 391.153,1896.34 1334.669,1896.34 1077.01,0 1414.36,-1130.78 1414.36,-3060.48 0,-2198.52 -435.6,-3168.01 -1442.15,-3168.01 -950.98,0 -1503.382,871.26 -1503.382,2002.03 H 70.4648 c 0,-1184.54 578.3362,-2091 1601.5852,-2091 1023.25,0 1807.37,906.46 1807.37,3184.69 0,2046.48 -632.1,3221.75 -1779.54,3221.75"
         style="fill:#ffffff;fill-opacity:1;fill-rule:nonzero;stroke:none"
         id="path14" /><path
         d="M 6720.67,1841.58 V 1752.6 H 4583.34 v 88.98 h 891.65 v 5451.79 l 163.11,687.72 h 192.79 V 1841.58 h 889.78"
         style="fill:#fff;fill-opacity:1;fill-rule:nonzero;stroke:none"
         id="path16" /><path
         d="M 8020.42,5224.52 C 7531.06,5358 6746.94,5545.23 6746.94,6540.67 c 0,721.09 418.95,1442.19 1290.18,1442.19 819.33,0 1228.98,-641.37 1228.98,-1601.61 0,-672.89 -200.16,-993.58 -491.21,-1197.51 l 98.25,-40.77 c 437.5,283.62 748.91,761.89 748.91,1336.51 0,871.26 -721.12,1592.36 -1610.91,1592.36 -873.09,0 -1592.3,-702.57 -1592.3,-1636.84 0,-926.86 693.28,-1334.67 1601.58,-1566.38 559.82,-142.74 1458.9,-374.45 1458.9,-1486.68 0,-854.56 -524.62,-1627.57 -1477.41,-1627.57 -915.72,0 -1405.13,728.53 -1405.13,1770.3 0,706.28 226.15,1145.59 635.81,1392.15 l -96.4,40.77 c -526.41,-305.84 -895.3,-858.25 -895.3,-1512.61 0,-978.76 800.76,-1779.58 1786.95,-1779.58 971.34,0 1772.16,782.26 1772.16,1824.07 0,1049.18 -828.6,1468.12 -1779.58,1735.05"
         style="fill:#fff;fill-opacity:1;fill-rule:nonzero;stroke:none"
         id="path18" /><g
         id="g20"
         transform="scale(10)"><text
           transform="matrix(1,0,0,-1,29.7406,24.1961)"
           style="font-variant:normal;font-style:normal;font-weight:500;font-size:92px;font-family:Montserrat;-inkscape-font-specification:Montserrat-Medium;writing-mode:lr-tb;fill:#fff;fill-opacity:1;fill-rule:nonzero;stroke:none"
           id="text24"><tspan
             x="0 53.359898 112.33111 186.3911 244.16649 265.04929 289.7973 346.28531 410.13199 472.78397 530.6521 551.53497 576.28296 637.18573 701.03247 752.92114 798.27716 861.57208"
             y="0"
             sodipodi:role="line"
             id="tspan22">кофе. вино. бистро</tspan></text></g></g></g></svg>
