<svg width="185" height="186" viewBox="0 0 185 186" fill="none" xmlns="http://www.w3.org/2000/svg">
<path d="M183.5 93C183.5 143.542 142.75 184.5 92.5 184.5C42.2497 184.5 1.5 143.542 1.5 93C1.5 42.4583 42.2497 1.5 92.5 1.5C142.75 1.5 183.5 42.4583 183.5 93Z" stroke="white" stroke-width="3"/>
<path d="M40.0625 116.625C36.8542 116.625 34.0833 115.875 31.75 114.375C29.4583 112.833 27.7083 110.771 26.5 108.188L29.3125 105.625C30.3125 107.917 31.7708 109.688 33.6875 110.938C35.6042 112.188 37.7292 112.812 40.0625 112.812C43.7292 112.812 46.7292 111.125 49.0625 107.75C51.4375 104.333 52.625 99.3958 52.625 92.9375C51.5833 95.5625 49.9375 97.6042 47.6875 99.0625C45.4375 100.479 42.875 101.188 40 101.188C35.5 101.188 31.7708 99.6875 28.8125 96.6875C25.8958 93.6458 24.4375 90.0417 24.4375 85.875C24.4375 83.125 25.0833 80.5625 26.375 78.1875C27.7083 75.8125 29.5833 73.8958 32 72.4375C34.4167 70.9792 37.2708 70.25 40.5625 70.25C45.3125 70.25 49.2083 71.9375 52.25 75.3125C55.3333 78.6458 56.875 83.2917 56.875 89.25C56.875 95.5833 56.1667 100.771 54.75 104.812C53.3333 108.812 51.3542 111.792 48.8125 113.75C46.2708 115.667 43.3542 116.625 40.0625 116.625ZM40.5 97.625C43.8333 97.625 46.625 96.4792 48.875 94.1875C51.1667 91.8958 52.3125 89.125 52.3125 85.875C52.3125 82.7083 51.1667 79.9583 48.875 77.625C46.5833 75.25 43.7708 74.0625 40.4375 74.0625C36.8958 74.0625 34.0208 75.2708 31.8125 77.6875C29.6458 80.1042 28.5625 82.8333 28.5625 85.875C28.5625 89.125 29.7292 91.8958 32.0625 94.1875C34.3958 96.4792 37.2083 97.625 40.5 97.625ZM66.3125 116H61.4375L91.625 70.5625H96.5625L66.3125 116ZM123.688 116H102.5V112.062H111.125V74.875C110.208 76.0833 108.708 77.3125 106.625 78.5625C104.583 79.7708 102.708 80.375 101 80.375V76.25H101.188C102.396 76.25 103.812 75.75 105.438 74.75C107.104 73.7083 108.458 72.7083 109.5 71.75C110.542 70.75 111.083 70.1667 111.125 70H115.5V112.062H123.688V116ZM143.75 116.5C139.125 116.5 135.354 115.188 132.438 112.562C129.562 109.896 128.125 106.75 128.125 103.125C128.125 100.25 129.021 97.8333 130.812 95.875C132.604 93.9167 134.75 92.5208 137.25 91.6875C135.083 90.8958 133.292 89.6875 131.875 88.0625C130.458 86.4375 129.75 84.4583 129.75 82.125C129.75 78.5417 131.188 75.7292 134.062 73.6875C136.979 71.6042 140.271 70.5625 143.938 70.5625C147.562 70.5625 150.833 71.5833 153.75 73.625C156.667 75.6667 158.125 78.4792 158.125 82.0625C158.125 84.3958 157.417 86.375 156 88C154.583 89.5833 152.771 90.8125 150.562 91.6875C153.188 92.5625 155.354 94 157.062 96C158.812 97.9583 159.688 100.417 159.688 103.375C159.688 107.375 158.104 110.562 154.938 112.938C151.812 115.312 148.083 116.5 143.75 116.5ZM143.875 90.0625C146.292 90.0625 148.542 89.3542 150.625 87.9375C152.708 86.5208 153.75 84.6042 153.75 82.1875C153.75 79.7292 152.729 77.8333 150.688 76.5C148.688 75.1667 146.396 74.5 143.812 74.5C141.312 74.5 139.062 75.1875 137.062 76.5625C135.062 77.9375 134.062 79.8542 134.062 82.3125C134.062 84.6875 135.083 86.5833 137.125 88C139.167 89.375 141.417 90.0625 143.875 90.0625ZM144 112.625C146.875 112.625 149.458 111.75 151.75 110C154.083 108.25 155.25 105.938 155.25 103.062C155.25 100.146 154.062 97.8333 151.688 96.125C149.354 94.4167 146.729 93.5625 143.812 93.5625C140.938 93.5625 138.354 94.4583 136.062 96.25C133.771 98 132.625 100.292 132.625 103.125C132.625 106 133.792 108.312 136.125 110.062C138.458 111.771 141.083 112.625 144 112.625Z" fill="white"/>
</svg>
